<svg width="223" height="196" viewBox="0 0 223 196" fill="none" xmlns="http://www.w3.org/2000/svg">
<path d="M8.01639 168.427L96.2759 15.9787C101.154 7.55324 103.593 3.34053 106.775 1.92564C109.55 0.691455 112.719 0.691455 115.494 1.92564C118.676 3.34053 121.115 7.55323 125.993 15.9786L214.253 168.427C219.148 176.883 221.596 181.11 221.234 184.58C220.919 187.607 219.333 190.357 216.872 192.147C214.05 194.198 209.165 194.198 199.394 194.198H22.8751C13.1045 194.198 8.21917 194.198 5.39743 192.147C2.93624 190.357 1.35055 187.607 1.035 184.58C0.673236 181.11 3.12095 176.883 8.01639 168.427Z" stroke="#FF4646" stroke-width="2" stroke-linecap="round" stroke-linejoin="round"/>
</svg>
